<!DOCTYPE svg PUBLIC "-//W3C//DTD SVG 1.1//EN" "http://www.w3.org/Graphics/SVG/1.1/DTD/svg11.dtd">
<!-- Uploaded to: SVG Repo, www.svgrepo.com, Transformed by: SVG Repo Mixer Tools -->
<svg width="800px" height="800px" viewBox="-2.4 -2.4 28.80 28.80" fill="none" xmlns="http://www.w3.org/2000/svg" stroke="#7ed0ec">
<g id="SVGRepo_bgCarrier" stroke-width="0">
<path transform="translate(-2.4, -2.4), scale(0.8999999999999999)" d="M16,27.606284731200763C19.133523270518634,27.697176836798874,22.455373213983865,28.532607047877903,25.087892839243022,26.830528940279066C27.897786745974287,25.01376797202918,29.494417191569013,21.77697817592977,30.10437309447078,18.486981522533743C30.718733749716037,15.173226396762626,30.328966076092932,11.607404792664727,28.425898402558566,8.825904212359875C26.60919963868659,6.1706393806241016,23.322923401449543,5.286905157752207,20.306846679028403,4.167036000316333C17.26515772015522,3.037657020586357,14.083227489425774,1.2472519586972526,11.039162050400462,2.3702097519016956C7.9995877004108795,3.4915107793323186,6.79240690676844,6.94299102730697,5.173944369096267,9.74957386723586C3.556601066604293,12.554215836630231,1.3076264727487037,15.306376851120751,1.7281265893985278,18.516516347544773C2.157151801167941,21.791737263617865,4.557875215244978,24.541369925536877,7.343980265949982,26.31584261562048C9.88103496435642,27.931694923282507,12.993337526192418,27.519072395604493,16,27.606284731200763" fill="#7ed0ec" strokewidth="0"/>
</g>
<g id="SVGRepo_tracerCarrier" stroke-linecap="round" stroke-linejoin="round"/>
<g id="SVGRepo_iconCarrier"> <path d="M9.73319 10.4608C9.82276 10.1025 10.1025 9.82273 10.4608 9.73315L13.9187 8.86869C14.651 8.68559 15.3144 9.34899 15.1313 10.0814L14.2669 13.5392C14.1773 13.8975 13.8975 14.1773 13.5393 14.2668L10.0814 15.1313C9.34902 15.3144 8.68562 14.651 8.86872 13.9186L9.73319 10.4608Z" stroke="#0a3494" stroke-width="1.344" stroke-linecap="round" stroke-linejoin="round"/> <path d="M12 3.5C5.5 3.5 3.5 5.5 3.5 12C3.5 18.5 5.5 20.5 12 20.5C18.5 20.5 20.5 18.5 20.5 12C20.5 5.5 18.5 3.5 12 3.5Z" stroke="#0a3494" stroke-width="1.344" stroke-linecap="round" stroke-linejoin="round"/> </g>
</svg>