<!DOCTYPE svg PUBLIC "-//W3C//DTD SVG 1.1//EN" "http://www.w3.org/Graphics/SVG/1.1/DTD/svg11.dtd">
<!-- Uploaded to: SVG Repo, www.svgrepo.com, Transformed by: SVG Repo Mixer Tools -->
<svg width="800px" height="800px" viewBox="-102.4 -102.4 1228.80 1228.80" class="icon" version="1.1" xmlns="http://www.w3.org/2000/svg" fill="#000000" stroke="#000000" stroke-width="8.192" transform="matrix(-1, 0, 0, 1, 0, 0)rotate(0)">
<g id="SVGRepo_bgCarrier" stroke-width="0" transform="translate(0,0), scale(1)">
<path transform="translate(-102.4, -102.4), scale(38.4)" d="M16,30.086907456318535C18.070697425050852,30.265226426586118,19.514414365489184,28.003162561448654,21.18497416938613,26.766709803405178C22.615298988609368,25.708065231985987,23.82364067545643,24.4793684678261,25.161524083594536,23.306071658271897C26.75064910501769,21.91244101282325,29.44846909176926,21.23652946801669,29.85586714634914,19.16251125817106C30.267662028294684,17.06610928895443,27.991627128207483,15.40662328767154,27.094037980378573,13.467858226342113C26.36911011518069,11.902036245952392,26.13470138727936,10.124786210281952,25.050297682519588,8.782628436726538C23.968542629448766,7.44374887813679,22.18408364713175,6.964480095069457,20.907090096190277,5.810322420352689C19.1151756974765,4.190774886861835,18.369178338238036,1.0728766136958252,16.000000000000004,0.6028921169539281C13.787236311402166,0.16393629340548888,12.053877506665124,2.6095979716237085,10.056312199668021,3.6578051080646734C8.122810475367409,4.672395368835432,5.281440384769213,4.736192625243463,4.3550714937320425,6.713479400813178C3.359928233440974,8.837561532033952,5.991915685953792,11.31068225665379,5.4067063149877725,13.582149844097573C4.796089758688662,15.952234440829884,1.0880773896781366,16.95665601211853,1.0855157852392399,19.40413369591404C1.0831694162564827,21.645965274610838,3.508273183790034,23.246635885488118,5.395324422621043,24.45694657069086C7.103232649081623,25.552359102844164,9.435839227210547,24.957833764509683,11.227953424548009,25.9092568193658C13.11893886784737,26.913170046449927,13.866944427053891,29.903218488200974,16,30.086907456318535" fill="#7ed0ec" strokewidth="0"/>
</g>
<g id="SVGRepo_tracerCarrier" stroke-linecap="round" stroke-linejoin="round" stroke="#CCCCCC" stroke-width="38.912">
<path d="M625.6 516.8l19.2 81.6 104-38.4 4.8 14.4-110.4 40L560 824l-14.4-6.4 83.2-203.2-169.6-25.6 64 217.6c3.2 8-1.6 17.6-11.2 19.2s-17.6-1.6-19.2-11.2l-68.8-232-153.6-22.4 1.6-16 145.6 22.4-28.8-96-116.8 59.2-14.4-28.8 129.6-65.6L480 217.6 254.4 499.2l-12.8-9.6L480 190.4l9.6 6.4 27.2 11.2-96 227.2 177.6 41.6-64-268.8 16-3.2 67.2 278.4 136 32c8 1.6 14.4 11.2 11.2 19.2-1.6 8-11.2 14.4-19.2 11.2l-120-28.8zM608 512l-185.6-43.2 30.4 102.4 176 25.6L608 512z m-46.4-313.6l12.8-9.6L784 484.8l-12.8 9.6-209.6-296zM768 588.8l12.8 9.6-201.6 240-12.8-9.6 201.6-240z m-278.4 240l-11.2 11.2-232-243.2 11.2-11.2 232 243.2z" fill="#050D42"/>
<path d="M400 448m-64 0a64 64 0 1 0 128 0 64 64 0 1 0-128 0Z" fill="#2F4BFF"/>
<path d="M640 608m-56 0a56 56 0 1 0 112 0 56 56 0 1 0-112 0Z" fill="#2F4BFF"/>
<path d="M208 624c-44.8 0-80-35.2-80-80s35.2-80 80-80 80 35.2 80 80-35.2 80-80 80z m0-32c27.2 0 48-20.8 48-48s-20.8-48-48-48-48 20.8-48 48 20.8 48 48 48zM528 960c-44.8 0-80-35.2-80-80s35.2-80 80-80 80 35.2 80 80-35.2 80-80 80z m0-32c27.2 0 48-20.8 48-48s-20.8-48-48-48-48 20.8-48 48 20.8 48 48 48zM528 224c-44.8 0-80-35.2-80-80s35.2-80 80-80 80 35.2 80 80-35.2 80-80 80z m0-32c27.2 0 48-20.8 48-48s-20.8-48-48-48-48 20.8-48 48 20.8 48 48 48zM816 624c-44.8 0-80-35.2-80-80s35.2-80 80-80 80 35.2 80 80-35.2 80-80 80z m0-32c27.2 0 48-20.8 48-48s-20.8-48-48-48-48 20.8-48 48 20.8 48 48 48z" fill="#2F4BFF"/>
</g>
<g id="SVGRepo_iconCarrier">
<path d="M625.6 516.8l19.2 81.6 104-38.4 4.8 14.4-110.4 40L560 824l-14.4-6.4 83.2-203.2-169.6-25.6 64 217.6c3.2 8-1.6 17.6-11.2 19.2s-17.6-1.6-19.2-11.2l-68.8-232-153.6-22.4 1.6-16 145.6 22.4-28.8-96-116.8 59.2-14.4-28.8 129.6-65.6L480 217.6 254.4 499.2l-12.8-9.6L480 190.4l9.6 6.4 27.2 11.2-96 227.2 177.6 41.6-64-268.8 16-3.2 67.2 278.4 136 32c8 1.6 14.4 11.2 11.2 19.2-1.6 8-11.2 14.4-19.2 11.2l-120-28.8zM608 512l-185.6-43.2 30.4 102.4 176 25.6L608 512z m-46.4-313.6l12.8-9.6L784 484.8l-12.8 9.6-209.6-296zM768 588.8l12.8 9.6-201.6 240-12.8-9.6 201.6-240z m-278.4 240l-11.2 11.2-232-243.2 11.2-11.2 232 243.2z" fill="#050D42"/>
<path d="M400 448m-64 0a64 64 0 1 0 128 0 64 64 0 1 0-128 0Z" fill="#2F4BFF"/>
<path d="M640 608m-56 0a56 56 0 1 0 112 0 56 56 0 1 0-112 0Z" fill="#2F4BFF"/>
<path d="M208 624c-44.8 0-80-35.2-80-80s35.2-80 80-80 80 35.2 80 80-35.2 80-80 80z m0-32c27.2 0 48-20.8 48-48s-20.8-48-48-48-48 20.8-48 48 20.8 48 48 48zM528 960c-44.8 0-80-35.2-80-80s35.2-80 80-80 80 35.2 80 80-35.2 80-80 80z m0-32c27.2 0 48-20.8 48-48s-20.8-48-48-48-48 20.8-48 48 20.8 48 48 48zM528 224c-44.8 0-80-35.2-80-80s35.2-80 80-80 80 35.2 80 80-35.2 80-80 80z m0-32c27.2 0 48-20.8 48-48s-20.8-48-48-48-48 20.8-48 48 20.8 48 48 48zM816 624c-44.8 0-80-35.2-80-80s35.2-80 80-80 80 35.2 80 80-35.2 80-80 80z m0-32c27.2 0 48-20.8 48-48s-20.8-48-48-48-48 20.8-48 48 20.8 48 48 48z" fill="#2F4BFF"/>
</g>
</svg>