<!DOCTYPE svg PUBLIC "-//W3C//DTD SVG 1.1//EN" "http://www.w3.org/Graphics/SVG/1.1/DTD/svg11.dtd">
<!-- Uploaded to: SVG Repo, www.svgrepo.com, Transformed by: SVG Repo Mixer Tools -->
<svg width="256px" height="256px" viewBox="0 0 1024.00 1024.00" class="icon" version="1.1" xmlns="http://www.w3.org/2000/svg" fill="#0400db" stroke="#0400db" stroke-width="2.048">
<g id="SVGRepo_bgCarrier" stroke-width="0">
<path transform="translate(0, 0), scale(32)" d="M16,30.887523492532118C18.34957319331435,31.436886683212837,20.98722588683143,30.63724898424497,22.934010232219787,29.211652681441436C24.831128945121485,27.822425657144333,25.173160457532315,25.18821380742653,26.46550482818769,23.223816402746266C27.725291599667134,21.308907404388677,30.284517740569843,20.041600835109822,30.46986237779854,17.756959386865475C30.656153929346033,15.460645846387916,28.224985692926047,13.827642112729826,27.402365230840893,11.67565326663481C26.582426328852836,9.530679426469096,27.433215162620744,6.553013645357344,25.63912692643312,5.119674893086334C23.82063799716158,3.666841860504019,20.975144833001217,5.510468991637984,18.766419334571598,4.776195555490165C16.2836147834587,3.950806691946331,14.831665310763356,0.5266186194998763,12.218564843426156,0.6581144851809491C9.737120873126297,0.7829851616406885,8.12800018634644,3.430073579621843,6.59901452013627,5.388481018358961C5.224420303415543,7.149135548197345,4.3468670774610425,9.213022910191818,3.840911181884559,11.388665864771886C3.373965187118395,13.396563732084736,3.437403687351739,15.451276466465597,3.7863773046980285,17.483002289991965C4.124187069482102,19.44973211836782,4.621649426785735,21.432334009986704,5.837784565642755,23.01447084953125C7.030102698653701,24.565622841131894,9.035189479050413,25.125318677284653,10.581793000746941,26.323530919764778C12.476058568170586,27.79109009802516,13.666689994534714,30.341962863436976,16,30.887523492532118" fill="#7ed0ec" strokewidth="0"/>
</g>
<g id="SVGRepo_tracerCarrier" stroke-linecap="round" stroke-linejoin="round"/>
<g id="SVGRepo_iconCarrier">
<path d="M604.5 701v-16.3h-185V701c0 22.4-4.6 44.6-13.6 65.2l-17.3 39.7h246.6L618 766.2c-8.9-20.6-13.5-42.8-13.5-65.2z" fill="#D5D9CF"/>
<path d="M643.7 811.4H380.3l20.6-47.4c8.7-20 13.1-41.2 13.1-63v-21.8h196V701c0 21.8 4.4 43 13.1 63l20.6 47.4z m-246.6-11H627l-13.9-32c-9.3-21.4-14-44.1-14-67.4v-10.8H425V701c0 23.3-4.7 46-14 67.4l-13.9 32z" fill="#333336"/>
<path d="M854.1 684.7H169.9c-18.2 0-33-14.8-33-33V211c0-18.2 14.8-33 33-33H854c18.2 0 33 14.8 33 33v440.6c0.1 18.3-14.7 33.1-32.9 33.1z" fill="#062ec1"/>
<path d="M854.1 690.2H169.9c-21.2 0-38.5-17.3-38.5-38.5V211c0-21.2 17.3-38.5 38.5-38.5H854c21.2 0 38.5 17.3 38.5 38.5v440.6c0.1 21.3-17.2 38.6-38.4 38.6zM169.9 183.5c-15.2 0-27.5 12.3-27.5 27.5v440.6c0 15.2 12.3 27.5 27.5 27.5H854c15.2 0 27.5-12.3 27.5-27.5V211c0-15.2-12.3-27.5-27.5-27.5H169.9z" fill="#333336"/>
<path d="M195.6 230.5h632.8v347.2H195.6z" fill="#D5D9CF"/>
<path d="M833.9 583.2H190.1V225h643.8v358.2z m-632.8-11h621.8V236H201.1v336.2z" fill="#333336"/>
<path d="M512 633m-25.7 0a25.7 25.7 0 1 0 51.4 0 25.7 25.7 0 1 0-51.4 0Z" fill="#f5f5f5"/>
<path d="M512 664.1c-17.2 0-31.2-14-31.2-31.2s14-31.2 31.2-31.2 31.2 14 31.2 31.2-14 31.2-31.2 31.2z m0-51.3c-11.1 0-20.2 9.1-20.2 20.2s9.1 20.2 20.2 20.2 20.2-9.1 20.2-20.2-9.1-20.2-20.2-20.2z" fill="#333336"/>
<path d="M729.5 643.5h-49.4c-5.5 0-9.9-4.5-9.9-9.9v-1.7c0-5.5 4.5-9.9 9.9-9.9h49.4c5.5 0 9.9 4.5 9.9 9.9v1.7c0 5.5-4.4 9.9-9.9 9.9z" fill="#f5f5f5"/>
<path d="M729.5 649h-49.4c-8.5 0-15.4-6.9-15.4-15.4v-1.7c0-8.5 6.9-15.4 15.4-15.4h49.4c8.5 0 15.4 6.9 15.4 15.4v1.7c0 8.5-6.9 15.4-15.4 15.4z m-49.3-21.5c-2.4 0-4.4 2-4.4 4.4v1.7c0 2.4 2 4.4 4.4 4.4h49.4c2.4 0 4.4-2 4.4-4.4v-1.7c0-2.4-2-4.4-4.4-4.4h-49.4z" fill="#333336"/>
<path d="M823.4 643.5H774c-5.5 0-9.9-4.5-9.9-9.9v-1.7c0-5.5 4.5-9.9 9.9-9.9h49.4c5.5 0 9.9 4.5 9.9 9.9v1.7c0 5.5-4.5 9.9-9.9 9.9z" fill="#f5f5f5"/>
<path d="M823.4 649H774c-8.5 0-15.4-6.9-15.4-15.4v-1.7c0-8.5 6.9-15.4 15.4-15.4h49.4c8.5 0 15.4 6.9 15.4 15.4v1.7c0 8.5-6.9 15.4-15.4 15.4zM774 627.5c-2.4 0-4.4 2-4.4 4.4v1.7c0 2.4 2 4.4 4.4 4.4h49.4c2.4 0 4.4-2 4.4-4.4v-1.7c0-2.4-2-4.4-4.4-4.4H774z" fill="#333336"/>
<path d="M676.4 846H347.6v-19.6c0-11.3 9.2-20.5 20.5-20.5h287.8c11.3 0 20.5 9.2 20.5 20.5V846z" fill="#ffffff"/>
<path d="M681.9 851.5H342.1v-25.1c0-14.3 11.7-26 26-26h287.8c14.3 0 26 11.7 26 26v25.1z m-328.8-11h317.8v-14.1c0-8.3-6.7-15-15-15H368.1c-8.3 0-15 6.7-15 15v14.1z" fill="#333336"/>
<path d="M300 829.2H187V591.1c0-10.6 8.6-19.2 19.2-19.2h72.7c11.7 0 21.2 9.5 21.2 21.2v236.1z" fill="#f5f5f5"/>
<path d="M305.5 834.7h-124V591.1c0-13.6 11.1-24.7 24.7-24.7h72.7c14.7 0 26.7 12 26.7 26.7v241.6z m-113-11h102V593.1c0-8.6-7-15.7-15.7-15.7h-72.7c-7.5 0-13.7 6.1-13.7 13.7v232.6z" fill="#333336"/>
<path d="M300 604.6H187v-20.9c0-16.7 13.5-30.2 30.2-30.2h52.6c16.7 0 30.2 13.5 30.2 30.2v20.9z" fill="#ffffff"/>
<path d="M305.5 610.1h-124v-26.4c0-19.7 16-35.7 35.7-35.7h52.6c19.7 0 35.7 16 35.7 35.7v26.4z m-113-11h102v-15.4c0-13.6-11.1-24.7-24.7-24.7h-52.6c-13.6 0-24.7 11.1-24.7 24.7v15.4z" fill="#333336"/>
<path d="M289.5 845.9h-92.1c-5.8 0-10.5-4.7-10.5-10.5v-22.8h113v22.8c0.1 5.8-4.6 10.5-10.4 10.5z" fill="#062ec1"/>
<path d="M289.5 851.4h-92.1c-8.8 0-16-7.2-16-16v-28.3h124v28.3c0.1 8.9-7.1 16-15.9 16z m-97-33.2v17.3c0 2.7 2.2 5 5 5h92.1c2.7 0 5-2.2 5-5v-17.3H192.5z" fill="#333336"/>
</g>
</svg>