<!DOCTYPE svg PUBLIC "-//W3C//DTD SVG 1.1//EN" "http://www.w3.org/Graphics/SVG/1.1/DTD/svg11.dtd">
<!-- Uploaded to: SVG Repo, www.svgrepo.com, Transformed by: SVG Repo Mixer Tools -->
<svg fill="#7ed0ec" width="800px" height="800px" viewBox="-25.6 -25.6 307.20 307.20" id="Flat" xmlns="http://www.w3.org/2000/svg" stroke="#7ed0ec">
<g id="SVGRepo_bgCarrier" stroke-width="0">
<path transform="translate(-25.6, -25.6), scale(9.6)" d="M16,26.26188295194879C17.92395568078706,26.347785120400143,19.64974187224509,28.932116071186982,21.400561145299562,28.12985893206109C23.161435587840202,27.322994331942763,22.302233738085235,24.279710152066297,23.553154306477122,22.800890684757647C24.750839403895633,21.385005389942446,27.37638928714865,21.60837622449181,28.284695092983313,19.99153939792601C29.153873534246188,18.44435154151956,28.629384855096774,16.41940357208862,28.087464624866698,14.729556274302471C27.57719017497389,13.138388696161709,25.791910649244162,12.231433823533283,25.285429619604884,10.6390547095798C24.608768201902855,8.511627529268088,26.49536764883881,5.352428862199285,24.688082489491002,4.041880337902402C22.879797270220827,2.7306066225371968,20.45767847346672,5.64407817396602,18.227393652627406,5.520936756187941C16.43184292003251,5.421798448453329,15.108365645106135,3.184356936241412,13.32486502195739,3.4144794353817396C11.573859239418946,3.640409172359076,10.365918324037914,5.330306202763147,9.229975431022348,6.68186058211351C8.213045687770453,7.891812117912153,7.6914748899475125,9.392087462995818,7.0769649611596375,10.84828331833705C6.515557741332991,12.178642403474646,6.129860923913065,13.529198297572515,5.752274794308194,14.922920679042958C5.322941999586925,16.507647124711017,4.714582752673127,18.034788357397336,4.685264063732999,19.67638056336742C4.650440720951877,21.626185624980216,4.37796316528624,23.848462850759827,5.565235394968576,25.395504251666235C6.737140669627015,26.922522177725437,8.891693231847455,27.497731731344533,10.809968122462841,27.657002454683578C12.614970628056101,27.80686838688186,14.190589277984998,26.181095069882492,16,26.26188295194879" fill="#0a3494" strokewidth="0"/>
</g>
<g id="SVGRepo_tracerCarrier" stroke-linecap="round" stroke-linejoin="round"/>
<g id="SVGRepo_iconCarrier"> <g opacity="0.2"> <rect x="40" y="40" width="176" height="176" rx="8"/> </g> <path d="M158.49023,79.32227a8.00469,8.00469,0,0,1,1.09961,7.208l-32,96a8.0005,8.0005,0,1,1-15.17968-5.06054L140.90039,92H104a8,8,0,0,1,0-16h48A8.00182,8.00182,0,0,1,158.49023,79.32227ZM224,48V208a16.01833,16.01833,0,0,1-16,16H48a16.01833,16.01833,0,0,1-16-16V48A16.01833,16.01833,0,0,1,48,32H208A16.01833,16.01833,0,0,1,224,48ZM208.00977,208,208,48H48V208H208.00977Z"/> </g>
</svg>