<!DOCTYPE svg PUBLIC "-//W3C//DTD SVG 1.1//EN" "http://www.w3.org/Graphics/SVG/1.1/DTD/svg11.dtd">
<!-- Uploaded to: SVG Repo, www.svgrepo.com, Transformed by: SVG Repo Mixer Tools -->
<svg fill="#7ed0ec" width="800px" height="800px" viewBox="-25.6 -25.6 307.20 307.20" id="Flat" xmlns="http://www.w3.org/2000/svg" stroke="#7ed0ec">
<g id="SVGRepo_bgCarrier" stroke-width="0">
<path transform="translate(-25.6, -25.6), scale(9.6)" d="M16,27.824227938894182C18.422810177269895,27.40568138112604,20.704177656717466,26.657101206155954,22.718064705617945,25.246622801368037C24.76372633594254,23.81389023841154,26.56767190669751,22.05073341211021,27.53250379991499,19.747137631473215C28.55744697227271,17.300022456453057,29.231338882730984,14.485314815216835,28.259236522291634,12.016732593129653C27.306980237110434,9.59854801490616,24.40531358751822,8.814205310765246,22.521975536432393,7.023270785899172C20.213072697073702,4.827651254299559,19.185875400690367,0.40342478066858967,16.000000000000004,0.35897952876985073C12.826173365159551,0.31470236581556676,11.759020703590076,4.779087372670653,9.344459925813453,6.839434970918262C7.21187999072737,8.659167978994208,4.065087431300604,9.224301046910163,2.7248827607980957,11.686652939182297C1.2628005522907921,14.37292987285803,1.0179799232793623,17.65426256931657,1.8575101089719777,20.59517351936977C2.7150048380556093,23.599015050445217,4.571977021797885,26.47909296104726,7.353496875618635,27.900890575696017C9.98431111659108,29.245653730005557,13.088539772955468,28.3271900229818,16,27.824227938894182" fill="#0a3494" strokewidth="0"/>
</g>
<g id="SVGRepo_tracerCarrier" stroke-linecap="round" stroke-linejoin="round"/>
<g id="SVGRepo_iconCarrier"> <g opacity="0.2"> <rect x="40" y="40" width="176" height="176" rx="8"/> </g> <path d="M149.457,126.54834a35.99719,35.99719,0,1,1-50.90723,50.9082,8.00018,8.00018,0,0,1,11.31446-11.31347,19.99683,19.99683,0,1,0,14.13965-34.13868,7.99971,7.99971,0,0,1-6.55469-12.58642L136.63281,92H104a8,8,0,0,1,0-16h47.99414a7.99973,7.99973,0,0,1,6.55469,12.58643L137.5332,118.62305A35.94154,35.94154,0,0,1,149.457,126.54834ZM224,48V208a16.01833,16.01833,0,0,1-16,16H48a16.01833,16.01833,0,0,1-16-16V48A16.01833,16.01833,0,0,1,48,32H208A16.01833,16.01833,0,0,1,224,48ZM208.00977,207.99951,208,48H48V208H208Z"/> </g>
</svg>