<!DOCTYPE svg PUBLIC "-//W3C//DTD SVG 1.1//EN" "http://www.w3.org/Graphics/SVG/1.1/DTD/svg11.dtd">
<!-- Uploaded to: SVG Repo, www.svgrepo.com, Transformed by: SVG Repo Mixer Tools -->
<svg fill="#7ed0ec" width="800px" height="800px" viewBox="-25.6 -25.6 307.20 307.20" id="Flat" xmlns="http://www.w3.org/2000/svg" stroke="#7ed0ec">
<g id="SVGRepo_bgCarrier" stroke-width="0">
<path transform="translate(-25.6, -25.6), scale(9.6)" d="M16,28.541495167783328C18.218172725830048,28.33144303217386,20.364053364060194,27.98392795721908,22.411439977054084,27.104939789935912C24.655658176013574,26.14144748752101,26.99482849974812,25.148061806818074,28.458369259101225,23.192842845405853C29.990818681062358,21.14556527689592,30.714034754590507,18.557274101946458,30.723824591508933,16C30.73363269331381,13.437954794971027,29.660660837826008,11.06621625871889,28.513562983074394,8.775291043200667C27.310340494298078,6.372276576738137,26.128696369721737,3.821931311302782,23.88524948326605,2.342347264626973C21.59434455824545,0.8314639894420783,18.699074545691644,0.02643012190138494,16.000000000000004,0.5224243189607343C13.409574566072681,0.9984526617843141,11.563634113280587,3.1768969581349578,9.627452937087845,4.962424713412318C8.02374139937985,6.441352149153028,6.9368098753916145,8.258814940518455,5.6784557638885165,10.040853656828398C4.2912363809550875,12.005387030864163,2.03166605381238,13.60323393628254,1.8334706202149391,15.999999999999998C1.6341141546184361,18.410806357399974,3.451797657769996,20.45154765990943,4.643485783875805,22.556686539735104C5.844549557417209,24.678387672307814,6.690064769244049,27.252777519850692,8.846951822085034,28.389442873136687C10.993361698444064,29.52058682302253,13.584581949506912,28.770225651206736,16,28.541495167783328" fill="#0a3494" strokewidth="0"/>
</g>
<g id="SVGRepo_tracerCarrier" stroke-linecap="round" stroke-linejoin="round"/>
<g id="SVGRepo_iconCarrier"> <g opacity="0.2"> <rect x="40" y="40" width="176" height="176" rx="8"/> </g> <path d="M118.63965,88,114.542,113.21094a36.413,36.413,0,0,1,9.33985-1.209A35.99912,35.99912,0,1,1,98.35449,173.4668a7.99985,7.99985,0,1,1,11.291-11.33594,20.20173,20.20173,0,0,0,28.47461-.001,19.91646,19.91646,0,0,0-.001-28.25976,20.20412,20.20412,0,0,0-28.47461.001,7.99971,7.99971,0,0,1-13.541-6.95214l7.835-48.20215A8.00076,8.00076,0,0,1,111.835,72H152a8,8,0,0,1,0,16ZM224,48V208a16.01833,16.01833,0,0,1-16,16H48a16.01833,16.01833,0,0,1-16-16V48A16.01833,16.01833,0,0,1,48,32H208A16.01833,16.01833,0,0,1,224,48ZM208.00977,208,208,48H48V208H208.00977Z"/> </g>
</svg>