<!DOCTYPE svg PUBLIC "-//W3C//DTD SVG 1.1//EN" "http://www.w3.org/Graphics/SVG/1.1/DTD/svg11.dtd">
<!-- Uploaded to: SVG Repo, www.svgrepo.com, Transformed by: SVG Repo Mixer Tools -->
<svg fill="#7ed0ec" width="800px" height="800px" viewBox="-25.6 -25.6 307.20 307.20" id="Flat" xmlns="http://www.w3.org/2000/svg" stroke="#7ed0ec" stroke-width="8.448">
<g id="SVGRepo_bgCarrier" stroke-width="0">
<path transform="translate(-25.6, -25.6), scale(9.6)" d="M16,28.74581811452905C18.017858651240672,28.874792557244486,19.840876736880784,27.668752731358722,21.61913808269115,26.70637311329874C23.380859253209568,25.7529448946591,25.286768221302857,24.84182155261071,26.350323767222996,23.144312656759602C27.402450672859114,21.465044668610993,27.29319164823743,19.365939266169057,27.45560628312422,17.39096243391033C27.612934913616677,15.477831880803603,27.94110561975553,13.524059894411456,27.28995720542995,11.718284007507332C26.634974439042598,9.901874630076742,25.336978979000712,8.361391994558211,23.785250400326014,7.212268907675689C22.292760202074316,6.1070144402857185,20.466662047346713,5.616377866768658,18.63509926659154,5.308982014950118C16.889471169592614,5.016008800232294,15.134520750111566,5.095313709674896,13.404602470933026,5.470058295944186C11.641925778480879,5.851899193164584,10.0550655245649,6.634450493368903,8.47789041220141,7.509293483765084C6.579163304928557,8.56249809462382,4.481628404432291,9.398762757001531,3.1837753584218103,11.13944711988532C1.7418882962320146,13.073310333377329,0.6748811440428328,15.439043400267526,0.7682637949565319,17.849467617934675C0.8633120876577477,20.302885938503245,1.8005736050673442,22.934804053471154,3.700968462904406,24.48940851054484C5.58786192948728,26.032968250814598,8.441867994408309,25.214099615981663,10.745624392931855,26.011376282062262C12.638993808808841,26.666627530204998,14.000532726808322,28.618019184148526,16,28.74581811452905" fill="#0a3494" strokewidth="0"/>
</g>
<g id="SVGRepo_tracerCarrier" stroke-linecap="round" stroke-linejoin="round"/>
<g id="SVGRepo_iconCarrier"> <g opacity="0.2"> <rect x="40" y="40" width="176" height="176" rx="8"/> </g> <path d="M140,84v92a8,8,0,0,1-16,0V98.94482l-11.56348,7.70557a8.00008,8.00008,0,0,1-8.873-13.31445l24-15.99317A8,8,0,0,1,140,84Zm84-36V208a16.01833,16.01833,0,0,1-16,16H48a16.01833,16.01833,0,0,1-16-16V48A16.01833,16.01833,0,0,1,48,32H208A16.01833,16.01833,0,0,1,224,48ZM208.00977,207.99951,208,48H48V208H208Z"/> </g>
</svg>