<!DOCTYPE svg PUBLIC "-//W3C//DTD SVG 1.1//EN" "http://www.w3.org/Graphics/SVG/1.1/DTD/svg11.dtd">
<!-- Uploaded to: SVG Repo, www.svgrepo.com, Transformed by: SVG Repo Mixer Tools -->
<svg fill="#7ed0ec" width="800px" height="800px" viewBox="-25.6 -25.6 307.20 307.20" id="Flat" xmlns="http://www.w3.org/2000/svg" stroke="#7ed0ec">
<g id="SVGRepo_bgCarrier" stroke-width="0">
<path transform="translate(-25.6, -25.6), scale(9.6)" d="M16,28.15330708552809C19.42752422756824,27.975392486241542,22.839114678862522,27.65238559653767,25.55862988435836,25.55862988435836C28.69095148278903,23.147054385224095,32.054262983715866,19.943974254425797,31.785558565355398,16C31.52222595441981,12.134871751578597,27.63160677926196,9.702544697792316,24.33924132762293,7.660758672377074C21.846562781645186,6.114904697237092,18.932640311003627,6.262728370506421,16,6.210463159224567C12.979587150543146,6.156633674871176,9.511096743198,5.239044084109789,7.3581229427731785,7.358122942773177C5.199717815271045,9.482547621428312,6.3612234938359045,12.987122337732409,6.053878245108267,15.999999999999998C5.680208671445416,19.663049018062207,3.0627382922913227,23.755822661234404,5.394709131624751,26.605290868375242C7.746852710940842,29.479408432301327,12.291082794221595,28.34582812247528,16,28.15330708552809" fill="#0a3494" strokewidth="0"/>
</g>
<g id="SVGRepo_tracerCarrier" stroke-linecap="round" stroke-linejoin="round"/>
<g id="SVGRepo_iconCarrier"> <g opacity="0.2"> <rect x="40" y="40" width="176" height="176" rx="8"/> </g> <path d="M208,32H48A16.01833,16.01833,0,0,0,32,48V208a16.01833,16.01833,0,0,0,16,16H208a16.01833,16.01833,0,0,0,16-16V48A16.01833,16.01833,0,0,0,208,32Zm0,176H48V48H208l.00977,160Zm-80-96q-.91517,0-1.81909.04614l16.68823-27.95141a8,8,0,0,0-13.73828-8.20118L96.88574,129.90137c-.06152.103-.11035.20984-.16675.31445A35.98766,35.98766,0,1,0,128,112Zm0,56a20,20,0,1,1,20-20A20.02229,20.02229,0,0,1,128,168Z"/> </g>
</svg>