<!DOCTYPE svg PUBLIC "-//W3C//DTD SVG 1.1//EN" "http://www.w3.org/Graphics/SVG/1.1/DTD/svg11.dtd">
<!-- Uploaded to: SVG Repo, www.svgrepo.com, Transformed by: SVG Repo Mixer Tools -->
<svg fill="#7ed0ec" width="800px" height="800px" viewBox="-25.6 -25.6 307.20 307.20" id="Flat" xmlns="http://www.w3.org/2000/svg" stroke="#7ed0ec">
<g id="SVGRepo_bgCarrier" stroke-width="0">
<path transform="translate(-25.6, -25.6), scale(9.6)" d="M16,28.923510554301387C17.666133957291454,28.306999439624953,18.940391814191656,26.93786130208156,20.640834460947854,26.42348486089083C22.624280448823214,25.82350115048249,24.93672892214255,26.688075447038084,26.7436314188296,25.673609179959513C28.593689182214803,24.63491384551714,30.144222504005793,22.823904074567967,30.69949612575553,20.77615581595727C31.25454211667301,18.72924701850969,30.614966107762392,16.494254949604855,29.758890230995316,14.553882364166853C28.980185147023242,12.788877604557532,27.486168358253057,11.477926726863235,26.035925522527762,10.205755698001564C24.837817329057202,9.15476030907226,23.191978351073793,8.800305768495079,21.99734690328712,7.745360151521831C20.658734133456555,6.563268656296647,20.047078866613678,4.737267357320624,18.62302625582895,3.6596316988746107C16.864485870669935,2.3288762116735713,14.702738778866667,-0.2879852480655982,12.75951980130095,0.7547392880317094C10.448257634883856,1.9949545175554348,11.870712732395962,6.044518614735291,10.284900796607939,8.13384078275196C9.272331416471108,9.467910482210684,6.955647485187868,8.944254462738458,5.701282901622431,10.054032910943903C4.353368310317047,11.246578190881909,3.5487907292478917,12.932478928580172,2.9448314503472393,14.627846493324226C2.26440689670629,16.53785890442267,1.109013923352354,18.72119102441733,1.9576936210409048,20.56262192306079C2.837156204718899,22.470844283270683,5.950070011103917,22.23154220607559,7.220525420838365,23.905074417887203C8.651137038799153,25.789575524265853,7.474337734000298,29.36119545028101,9.52844736100112,30.53534521144833C11.479796493002198,31.650756038200765,13.892037315677888,29.703509316417982,16,28.923510554301387" fill="#0a3494" strokewidth="0"/>
</g>
<g id="SVGRepo_tracerCarrier" stroke-linecap="round" stroke-linejoin="round"/>
<g id="SVGRepo_iconCarrier"> <g opacity="0.2"> <rect x="40" y="40" width="176" height="176" rx="8"/> </g> <path d="M149.08643,123.33423c.042-.04126.08593-.07984.12744-.12134a30,30,0,1,0-42.42676.001c.04126.04126.085.07934.12646.12036A34.52613,34.52613,0,0,0,103.958,125.958a34,34,0,1,0,48.084,0A34.52613,34.52613,0,0,0,149.08643,123.33423Zm-30.98584-11.43384A14.002,14.002,0,1,1,128,116,13.91193,13.91193,0,0,1,118.10059,111.90039Zm22.627,50.82715A17.99816,17.99816,0,1,1,146,150,17.879,17.879,0,0,1,140.72754,162.72754ZM208,32H48A16.01833,16.01833,0,0,0,32,48V208a16.01833,16.01833,0,0,0,16,16H208a16.01833,16.01833,0,0,0,16-16V48A16.01833,16.01833,0,0,0,208,32Zm0,176H48V48H208l.00977,160Z"/> </g>
</svg>