<!DOCTYPE svg PUBLIC "-//W3C//DTD SVG 1.1//EN" "http://www.w3.org/Graphics/SVG/1.1/DTD/svg11.dtd">
<!-- Uploaded to: SVG Repo, www.svgrepo.com, Transformed by: SVG Repo Mixer Tools -->
<svg fill="#7ed0ec" width="800px" height="800px" viewBox="-33.28 -33.28 322.56 322.56" id="Flat" xmlns="http://www.w3.org/2000/svg">
<g id="SVGRepo_bgCarrier" stroke-width="0">
<path transform="translate(-33.28, -33.28), scale(10.08)" d="M16,27.57113929837942C18.521859705848964,27.97659742550838,20.819407299786782,30.624538498695436,23.22523236866279,29.76653010316116C25.529632624690887,28.944693639686623,25.956832677701385,25.816571307008477,27.052890696501347,23.629259593488204C28.02629517552557,21.686717335283742,28.968489529959886,19.761765807426297,29.313561321599195,17.616559019419757C29.6670637915374,15.418941258530232,29.969383302438345,13.079753940721899,29.07793143328096,11.040194825568502C28.196147891787007,9.022755946511404,25.92753583863455,8.095996543997025,24.4420213275179,6.470927781746445C22.76528255723659,4.636670507483679,22.08581585090845,1.6463719802182322,19.740232368320164,0.8252807683791463C17.420276421384433,0.013160690785166906,14.908430301384165,1.4088786907570308,12.63233549255944,2.336847999190695C10.56310954490743,3.1804763771435125,8.574038099124857,4.2786890335927,7.116112965716454,5.97216450371317C5.74014415121693,7.570442345016386,5.205332854608275,9.655827569911873,4.593757296037639,11.674182735048849C4.01414225600063,13.58706004588182,3.7251353393810778,15.506824768324023,3.62220958599109,17.50293585997844C3.503281406182416,19.80939319458618,2.7242713375467393,22.360666409620862,3.9415258186041537,24.323363756810203C5.155754716463422,26.28118266304154,7.674738934473568,27.024873271034473,9.899247615930083,27.624012497022893C11.891881752828787,28.160699669526036,13.96252239398227,27.24355888132167,16,27.57113929837942" fill="#0a3494" strokewidth="0"/>
</g>
<g id="SVGRepo_tracerCarrier" stroke-linecap="round" stroke-linejoin="round"/>
<g id="SVGRepo_iconCarrier"> <g opacity="0.2"> <rect x="40" y="40" width="176" height="176" rx="8"/> </g> <path d="M208,32H48A16.01833,16.01833,0,0,0,32,48V208a16.01833,16.01833,0,0,0,16,16H208a16.01833,16.01833,0,0,0,16-16V48A16.01833,16.01833,0,0,0,208,32Zm0,176H48V48H208l.00977,159.99951Zm-53.69727-85.78418-34.30566,45.77832H152a8,8,0,0,1,0,16H104.31738c-.10644.0044-.21191.00635-.31836.00635a8.00251,8.00251,0,0,1-6.30078-12.93164L141.37012,112.793a16.0039,16.0039,0,1,0-28.11621-15.01856A8,8,0,1,1,98.51758,91.542a32.00411,32.00411,0,1,1,56.01269,30.35547C154.457,122.00537,154.38184,122.11182,154.30273,122.21582Z"/> </g>
</svg>