<!DOCTYPE svg PUBLIC "-//W3C//DTD SVG 1.1//EN" "http://www.w3.org/Graphics/SVG/1.1/DTD/svg11.dtd">
<!-- Uploaded to: SVG Repo, www.svgrepo.com, Transformed by: SVG Repo Mixer Tools -->
<svg fill="#7ed0ec" width="800px" height="800px" viewBox="-25.6 -25.6 307.20 307.20" id="Flat" xmlns="http://www.w3.org/2000/svg" stroke="#7ed0ec">
<g id="SVGRepo_bgCarrier" stroke-width="0">
<path transform="translate(-25.6, -25.6), scale(9.6)" d="M16,28.08726793434471C17.848426075077334,27.603972710930627,18.880756322231644,25.540656328574297,20.698379260024325,24.95201375110426C23.03365927217887,24.19572639530192,26.545040217913975,26.261237209507865,27.91917036257409,24.22720927330556C29.300908712481586,22.18191944747972,26.02095306886367,19.67255135208303,25.931432434486073,17.205894222433184C25.860764911074,15.258716885375476,27.6332497296821,13.593718935703468,27.462813656616227,11.65272820264619C27.277206690788482,9.53896558079034,26.50914412540317,7.337206848436637,24.93949996225233,5.909390484752148C23.367089567139576,4.4790578365786695,21.04935366962291,4.393883391607873,18.97461857069321,3.9314980497567635C16.9383720325526,3.4776904518051044,14.742008734166895,2.3385835488953393,12.848727105010665,3.214783282259715C10.91251967168746,4.110848828288378,10.772322258682284,6.890281911018103,9.28215080093344,8.41711579659517C7.933309864079444,9.799142031182534,5.846153568814368,10.204642028056,4.592807007707474,11.673822338223005C3.067559178162193,13.461726936065332,0.6792415768359714,15.516687577248328,1.289472045344798,17.786181478500726C1.9366851837493098,20.193216764707866,5.744715868438085,20.065403371477032,7.359668010738654,21.963990555055524C8.746516390663778,23.594411971718397,8.060653526784773,26.56205715153136,9.807041389778384,27.799696782765963C11.517969987319848,29.012206949264815,13.971189806146384,28.61772694978693,16,28.08726793434471" fill="#0a3494" strokewidth="0"/>
</g>
<g id="SVGRepo_tracerCarrier" stroke-linecap="round" stroke-linejoin="round"/>
<g id="SVGRepo_iconCarrier"> <g opacity="0.2"> <rect x="40" y="40" width="176" height="176" rx="8"/> </g> <path d="M156,112v64a8,8,0,0,1-16,0V152H100a8.00052,8.00052,0,0,1-7.54395-10.6626l23.998-68A8,8,0,0,1,131.542,78.6626L111.30664,136H140V112a8,8,0,0,1,16,0Zm68-64V208a16.01833,16.01833,0,0,1-16,16H48a16.01833,16.01833,0,0,1-16-16V48A16.01833,16.01833,0,0,1,48,32H208A16.01833,16.01833,0,0,1,224,48ZM208.00977,208,208,48H48V208H208.00977Z"/> </g>
</svg>