<!DOCTYPE svg PUBLIC "-//W3C//DTD SVG 1.1//EN" "http://www.w3.org/Graphics/SVG/1.1/DTD/svg11.dtd">
<!-- Uploaded to: SVG Repo, www.svgrepo.com, Transformed by: SVG Repo Mixer Tools -->
<svg fill="#7ed0ec" width="800px" height="800px" viewBox="-25.6 -25.6 307.20 307.20" id="Flat" xmlns="http://www.w3.org/2000/svg" stroke="#7ed0ec">
<g id="SVGRepo_bgCarrier" stroke-width="0">
<path transform="translate(-25.6, -25.6), scale(9.6)" d="M16,29.983459666371346C18.037143015038758,29.72904997382223,20.030813274707278,28.993221395178303,21.648453249078017,27.72913402924904C23.15464617818638,26.55213575861808,23.547299254031763,24.455654978682343,24.856385929927217,23.0627321007895C26.30315047674968,21.523314220140158,28.938673891465417,21.093049990291966,29.72709659763459,19.133120220733325C30.499576768007543,17.212821793936335,29.07316637836866,15.121023658084852,28.880114309789853,13.060197959391276C28.6585049171144,10.694523585324587,30.044794041531695,7.836878975949837,28.49979829661589,6.031743492051229C26.935807672997946,4.20441485346568,23.776221305304777,5.383384000973737,21.543662579419504,4.488466038458014C19.494908914085258,3.66722607078347,18.204858075640985,1.1233325644764933,16.000000000000004,1.0212172766526528C13.808019537597213,0.919698399634946,12.079804429365012,2.825615118644225,10.203409685284996,3.963256184330314C8.466753811262524,5.016174844162522,6.750545710955223,6.039604635717513,5.329559955980496,7.490608017229254C3.8164102121480314,9.035722306621677,1.6194687342112377,10.557088870885128,1.6281059764910584,12.719708974507284C1.637307453800237,15.02360403350626,4.323516458796858,16.374609235860643,5.373232549068547,18.42549032453675C6.146621629157021,19.936497970548483,6.364243760721321,21.608856591059862,6.986268788695259,23.188210775554285C7.802022251944237,25.259451622396977,7.851094669734518,27.890169689768896,9.628655650492956,29.230232866681625C11.358008271981761,30.533952847621944,13.850972970783111,30.251842053737704,16,29.983459666371346" fill="#0a3494" strokewidth="0"/>
</g>
<g id="SVGRepo_tracerCarrier" stroke-linecap="round" stroke-linejoin="round"/>
<g id="SVGRepo_iconCarrier"> <g opacity="0.2"> <rect x="40" y="40" width="176" height="176" rx="8"/> </g> <path d="M208,32H48A16.01833,16.01833,0,0,0,32,48V208a16.01833,16.01833,0,0,0,16,16H208a16.01833,16.01833,0,0,0,16-16V48A16.01833,16.01833,0,0,0,208,32Zm0,176H48V48H208l.00977,160ZM128,76a36,36,0,0,0,0,72q.91626,0,1.82129-.04614l-16.68945,27.9436a8.00015,8.00015,0,1,0,13.73632,8.20508l32.249-53.99512c.09668-.16162.178-.32812.262-.49341A35.97537,35.97537,0,0,0,128,76Zm-20,36a20,20,0,1,1,20,20A20.02229,20.02229,0,0,1,108,112Z"/> </g>
</svg>