<!DOCTYPE svg PUBLIC "-//W3C//DTD SVG 1.1//EN" "http://www.w3.org/Graphics/SVG/1.1/DTD/svg11.dtd">
<!-- Uploaded to: SVG Repo, www.svgrepo.com, Transformed by: SVG Repo Mixer Tools -->
<svg width="800px" height="800px" viewBox="-102.4 -102.4 1228.80 1228.80" class="icon" version="1.1" xmlns="http://www.w3.org/2000/svg" fill="#000000" stroke="#000000" stroke-width="17.408">
<g id="SVGRepo_bgCarrier" stroke-width="0">
<path transform="translate(-102.4, -102.4), scale(38.4)" d="M16,28.2135835055481C19.097312064894762,28.457033509653836,21.58749594395551,25.980968270050298,23.809828901346805,23.809828901346805C26.068078692418023,21.60360007795908,28.33744762434659,19.15280856294601,28.501569242161864,16C28.672300586507138,12.720217290199226,26.776552274731575,9.850031342177726,24.66757129971863,7.332428700281373C22.28891714464146,4.492902855367918,19.704133448660226,1.0934754819269659,16.000000000000004,1.0762125762069914C12.289314092389088,1.0589191331204049,9.411588015646966,4.234229973710545,7.2512609649754936,7.25126096497549C5.443536000172855,9.775861228994629,4.899393890477985,12.922720096849428,5.313911006073742,15.999999999999998C5.674101329705879,18.673970271720727,7.551766355191305,20.640975672845443,9.328416109119809,22.671583890880186C11.307430529058315,24.933483252783404,13.00379819142087,27.97808080923681,16,28.2135835055481" fill="#7ed0ec" strokewidth="0"/>
</g>
<g id="SVGRepo_tracerCarrier" stroke-linecap="round" stroke-linejoin="round"/>
<g id="SVGRepo_iconCarrier">
<path d="M195.2 534.4l147.2-147.2c73.6-1.6 140.8 28.8 203.2 91.2 62.4 62.4 92.8 129.6 91.2 203.2l-147.2 147.2c-81.6 81.6-212.8 81.6-294.4 0s-81.6-212.8 0-294.4z" fill="#1935e6"/>
<path d="M217.6 556.8c-68.8 68.8-68.8 180.8 0 249.6s180.8 68.8 249.6 0l339.2-339.2c68.8-68.8 68.8-180.8 0-249.6s-180.8-68.8-249.6 0L217.6 556.8z m-22.4-22.4l339.2-339.2c81.6-81.6 212.8-81.6 294.4 0s81.6 212.8 0 294.4L489.6 828.8c-81.6 81.6-212.8 81.6-294.4 0s-81.6-212.8 0-294.4z" fill="#ffffff"/>
<path d="M590.4 433.6c-12.8 12.8-32 12.8-44.8 0-12.8-12.8-12.8-32 0-44.8 12.8-12.8 32-12.8 44.8 0 12.8 11.2 12.8 32 0 44.8z m136 67.2c-12.8 12.8-32 12.8-44.8 0s-12.8-32 0-44.8 32-12.8 44.8 0 12.8 32 0 44.8z m17.6-176c-9.6 9.6-24 9.6-33.6 0-9.6-9.6-9.6-24 0-33.6 9.6-9.6 24-9.6 33.6 0s9.6 24 0 33.6z m62.4-16c-6.4 6.4-16 6.4-22.4 0-6.4-6.4-6.4-16 0-22.4 6.4-6.4 16-6.4 22.4 0 6.4 4.8 6.4 16 0 22.4zM704 251.2c-6.4 6.4-16 6.4-22.4 0s-6.4-16 0-22.4 16-6.4 22.4 0c6.4 6.4 6.4 16 0 22.4z m-22.4 158.4c-6.4 6.4-16 6.4-22.4 0-6.4-6.4-6.4-16 0-22.4 6.4-6.4 16-6.4 22.4 0 6.4 6.4 6.4 16 0 22.4z m-124.8-100.8c-6.4 6.4-16 6.4-22.4 0-6.4-6.4-6.4-16 0-22.4 6.4-6.4 16-6.4 22.4 0 6.4 4.8 6.4 16 0 22.4z m107.2-17.6c-16 16-41.6 16-56 0s-16-41.6 0-56 41.6-16 56 0 16 40 0 56z" fill="#1935e6"/>
</g>
</svg>