<!DOCTYPE svg PUBLIC "-//W3C//DTD SVG 1.1//EN" "http://www.w3.org/Graphics/SVG/1.1/DTD/svg11.dtd">
<!-- Uploaded to: SVG Repo, www.svgrepo.com, Transformed by: SVG Repo Mixer Tools -->
<svg width="800px" height="800px" viewBox="-4.8 -4.8 57.60 57.60" xmlns="http://www.w3.org/2000/svg" fill="#1631b6" stroke="#1631b6" stroke-width="2.928">
<g id="SVGRepo_bgCarrier" stroke-width="0">
<path transform="translate(-4.8, -4.8), scale(1.7999999999999998)" d="M16,27.727156163503725C18.326554395058672,27.864952977323554,20.81656079266161,29.001485770259865,22.87059381480018,27.90021756540239C24.92545501516528,26.79850533343386,25.511405110340856,24.176967727406502,26.531802004545227,22.08053872237603C27.488026452745043,20.115953490971116,28.55478918474424,18.182268178599756,28.66279808928569,16C28.773659213234097,13.760104094532617,28.538065172479488,11.324287806390576,27.151406206268717,9.561732624967895C25.798405592418934,7.841959919119668,23.06546948187719,8.087412590549974,21.359551124274734,6.71698514699327C19.210158831332976,4.99029865458899,18.757049878763187,0.6003225758251244,16.000000000000004,0.6033947120110206C13.24144338624448,0.6064685271274023,12.921861022995628,5.168088510023143,10.647340384622417,6.728921590543937C8.63726666278267,8.108284567692811,5.313704095734093,7.042238507810948,3.8150476424904376,8.965014476329081C2.3461822424502876,10.84956852877528,2.8993939324869182,13.66830953484035,3.421245553841194,15.999999999999998C3.8870702805516295,18.081356135078373,5.569364445180902,19.559699000504963,6.603687370955326,21.42496362576881C7.659737789988704,23.329410912038885,7.775219122043619,25.90026665589578,9.583752576882635,27.113266530772144C11.399016718049124,28.330780738325746,13.81806872901044,27.597925066326376,16,27.727156163503725" fill="#7ed0ec" strokewidth="0"/>
</g>
<g id="SVGRepo_tracerCarrier" stroke-linecap="round" stroke-linejoin="round"/>
<g id="SVGRepo_iconCarrier">
<defs>
<style>.a,.b{fill:none;stroke:#1631b6;}.a{stroke-linecap:round;stroke-linejoin:round;}.b{stroke-miterlimit:7;}</style>
</defs>
<path class="a" d="M11.628,18.36a13.0524,13.0524,0,0,1,21.6678-4.5742m2.6922,4.8208a55.5237,55.5237,0,0,1,1.9271,23.874"/>
<path class="a" d="M15.61,7.5417A17.9178,17.9178,0,0,0,7.8763,15.44m28.139-5.1458a13.5174,13.5174,0,0,1,3.3715,4.3711"/>
<path class="a" d="M5.5,10.269A22.6788,22.6788,0,0,1,9.5368,5.9434m28.55-.0927a22.6861,22.6861,0,0,1,3.9879,4.1941"/>
<path class="a" d="M10.855,23.677a96.4955,96.4955,0,0,1,.3841,10.073m-.3241,5.9892c-.0926.924-.2077,1.8424-.35,2.741"/>
<path class="a" d="M15.073,42.48a30.7064,30.7064,0,0,0,.5789-4.4675m18.12-.0168c-.0636,1.4147-.17,2.9108-.3308,4.4843"/>
<path class="a" d="M19.582,40.062c.05-.6924.09-1.387.1383-2.07m9.3569,2.2087c-.0687.7883-.1536,1.5617-.2333,2.2793"/>
<path class="a" d="M24.453,38.032c-.0247.8874-.0657,1.7706-.1267,2.634-.0412.5827-.1543,1.2547-.2149,1.8147"/>
<path class="a" d="M19.365,17.209a4.4073,4.4073,0,0,1,8.8146,0v2.3619"/>
<rect class="a" x="15.323" y="19.739" width="16.899" height="15.778" rx="1.5672"/>
<path class="b" d="M19.365,17.209v2.53"/>
<circle class="a" cx="23.772" cy="27.01" r="2.2552"/>
<path class="a" d="M40.5,5.5H7.5a2,2,0,0,0-2,2v33a2,2,0,0,0,2,2h33a2,2,0,0,0,2-2V7.5A2,2,0,0,0,40.5,5.5Z"/>
</g>
</svg>