<!DOCTYPE svg PUBLIC "-//W3C//DTD SVG 1.1//EN" "http://www.w3.org/Graphics/SVG/1.1/DTD/svg11.dtd">
<!-- Uploaded to: SVG Repo, www.svgrepo.com, Transformed by: SVG Repo Mixer Tools -->
<svg width="800px" height="800px" viewBox="0 0 1024.00 1024.00" class="icon" version="1.1" xmlns="http://www.w3.org/2000/svg" fill="#1631b6" stroke="#1631b6" stroke-width="34.816">
<g id="SVGRepo_bgCarrier" stroke-width="0" transform="translate(0,0), scale(1)">
<path transform="translate(0, 0), scale(32)" d="M16,29.156569663967403C19.10974560698093,29.590698712038705,22.807885656834717,30.691001272762094,25.17390617363867,28.626798597495146C27.552102807661463,26.551973033052477,26.537565409406596,22.69397299210978,26.988016454917542,19.570222968733987C27.345913270414012,17.08831023500929,28.10814022892202,14.693241409166163,27.535186452946405,12.25199072171872C26.92381537186428,9.647050961201728,25.533194329922388,7.362815338901017,23.671842354067557,5.440614887156411C21.48196469728015,3.179149094686396,19.143762353205755,0.17677202114735685,16.000000000000004,0.33971357132707425C12.853046780309844,0.5028205044692966,11.410277939279526,4.322130941336606,8.884983142975447,6.2070194341437706C6.409506154584528,8.054723748291943,2.461853450518693,8.356192627007701,1.3822929503120154,11.250419065793764C0.30212029646416205,14.14628664581513,2.4234220954908,17.188242859303255,3.7471498315235205,19.98119235472869C4.905778506840587,22.42579730333442,6.350262882892595,24.67971433316149,8.515692119233147,26.301266054327414C10.706626733202487,27.941917124619536,13.28914923036279,28.77812743337334,16,29.156569663967403" fill="#7ed0ec" strokewidth="0"/>
</g>
<g id="SVGRepo_tracerCarrier" stroke-linecap="round" stroke-linejoin="round" stroke="#CCCCCC" stroke-width="2.048"/>
<g id="SVGRepo_iconCarrier">
<path d="M993.763 493.538v35c0 13.331-6.04 26.664-18.135 37.137-140.15 121.422-280.35 242.795-420.49 364.219-11.814 10.237-25.813 15.501-42.454 15.501v-35c16.643 0 30.64-5.264 42.454-15.501 140.141-121.424 280.336-242.802 420.49-364.217 12.095-10.475 18.135-23.803 18.135-37.139z" fill="#0088ff"/>
<path d="M30.239 528.367v-3.5-1.75-3.5-3.5-1.75-3.5-3.5-1.75-3.5-3.5-1.75-3.5c0 14.707 6.701 29.313 19.037 40.019 138.449 120.064 277.049 239.996 415.562 360.02 13.002 11.26 28.74 16.466 47.852 16.994v35c-19.108-0.528-34.85-5.734-47.852-16.994C326.325 808.382 187.725 688.45 49.276 568.386c-12.337-10.705-19.037-25.312-19.037-40.019z" fill="#0088ff"/>
<path d="M510.786 76.601c16.263 0 32.546 5.362 44.946 16.097 139.95 121.188 279.901 242.376 419.819 363.586 24.241 20.995 24.295 53.413 0.079 74.397-140.15 121.42-280.35 242.796-420.489 364.217-11.815 10.239-25.813 15.502-42.452 15.502-19.109-0.528-34.852-5.734-47.854-16.994-138.511-120.024-277.111-239.956-415.56-360.02-19.581-16.988-24.96-43.81-11.895-65.251 3.919-6.438 8.669-11.829 14.465-16.849C189.954 331.734 328.024 212.152 466.107 92.567c12.296-10.64 28.478-15.966 44.679-15.966z" fill="#0088ff"/>
<path d="M512.313 340.553v-0.043-0.045-0.046-0.045-0.045-0.043-0.042-0.04-1.922-2.037-2.114-2.153-2.153-2.112-2.039-1.922l0.103-0.001v16.8l-0.103 0.002z" fill="#005475"/>
<path d="M512.416 323.751v16.8c-0.743 0.014-1.46 0.07-2.155 0.164v-16.8c0.695-0.094 1.414-0.15 2.155-0.164" fill="#005475"/>
<path d="M513.228 340.603a17.182 17.182 0 0 0-0.812-0.052v-16.8c0.269 0.011 0.538 0.028 0.812 0.052V340.603z" fill="#005475"/>
<path d="M524.726 360.078v16.8c0-8.718-0.005-17.436-0.028-26.158-0.021-5.778-4.818-9.523-11.453-10.118a17.815 17.815 0 0 0-0.827-0.052v-16.8c0.274 0.011 0.551 0.028 0.827 0.052 6.634 0.593 11.433 4.34 11.453 10.118 0.023 8.723 0.028 17.441 0.028 26.158" fill="#005475"/>
<path d="M501.223 345.7v-0.985-1.044-1.082-1.102-1.103-1.083-1.044-0.985-0.98-1.039-1.077-1.096-1.095-1.075-1.034-0.976c2.254-3.066 6.165-5.03 11.091-5.146V340.553c-4.925 0.117-8.835 2.08-11.091 5.147z" fill="#005475"/>
<path d="M512.416 323.751v16.8c-0.743 0.014-1.46 0.07-2.155 0.164v-16.8c0.695-0.094 1.414-0.15 2.155-0.164" fill="#005475"/>
<path d="M510.262 323.916v16.8a15.842 15.842 0 0 0-3.328 0.816v-16.8a15.78 15.78 0 0 1 3.328-0.816" fill="#005475"/>
<path d="M506.935 324.731v16.8a13.43 13.43 0 0 0-2.602 1.282v-16.8a13.488 13.488 0 0 1 2.602-1.282M504.333 326.013v16.8a11.668 11.668 0 0 0-2.645 2.298v-16.8a11.693 11.693 0 0 1 2.645-2.298M501.688 328.311v16.8c-1.513 1.788-2.42 4.01-2.573 6.494v-16.8c0.155-2.484 1.06-4.706 2.573-6.494" fill="#005475"/>
<path d="M501.223 345.7c-1.333 1.815-2.085 4.015-2.127 6.448v-16.8c0.042-2.432 0.794-4.633 2.127-6.448V345.7z" fill="#005475"/>
<path d="M501.688 328.311v16.8c-1.513 1.788-2.42 4.01-2.573 6.494v-16.8c0.155-2.484 1.06-4.706 2.573-6.494" fill="#005475"/>
<path d="M499.116 334.804v16.8c-0.011 0.179-0.018 0.361-0.021 0.543v-16.8c0.003-0.182 0.011-0.364 0.021-0.543" fill="#005475"/>
<path d="M513.228 340.603v-0.045-0.044-0.046-0.044-0.045-0.042-0.043-0.039-1.921-2.039-2.114-2.153-2.153-2.114-2.038-1.921h0.017c6.634 0.594 11.433 4.34 11.453 10.117 0.024 8.723 0.028 17.441 0.028 26.161v16.8c0-8.719-0.005-17.438-0.028-26.16-0.021-5.778-4.818-9.522-11.453-10.117h-0.017z" fill="#005475"/>
<path d="M524.726 360.078v16.8c0-8.718-0.005-17.436-0.028-26.158-0.021-5.778-4.818-9.523-11.453-10.118a17.815 17.815 0 0 0-0.827-0.052v-16.8c0.274 0.011 0.551 0.028 0.827 0.052 6.634 0.593 11.433 4.34 11.453 10.118 0.023 8.723 0.028 17.441 0.028 26.158" fill="#005475"/>
<path d="M524.726 359.894V379.038v-16.8-2.344z" fill="#005475"/>
<path d="M524.726 359.894V379.038v-16.8-2.344" fill="#005475"/>
<path d="M524.726 362.238v16.8c-0.001 9.438-0.008 18.875-0.008 28.312v-16.8c0-9.436 0.007-18.874 0.008-28.312z" fill="#005475"/>
<path d="M524.726 362.238v16.8c-0.001 9.438-0.008 18.875-0.008 28.312v-16.8c0-9.436 0.007-18.874 0.008-28.312" fill="#005475"/>
<path d="M499.321 406.646v16.8c0-23.659-0.045-47.318-0.227-70.98v-16.8c0.181 23.662 0.227 47.322 0.227 70.98z" fill="#005475"/>
<path d="M499.321 406.646v16.8c0-23.659-0.045-47.318-0.227-70.98v-16.8c0.181 23.662 0.227 47.322 0.227 70.98" fill="#005475"/>
<path d="M524.721 477.429c0-23.36-0.003-46.718-0.003-70.08v-16.8c0 23.361 0.003 46.72 0.003 70.079v16.801z" fill="#005475"/>
<path d="M524.721 460.612v16.8c0-23.354-0.003-46.708-0.003-70.063v-16.8c0 23.355 0.003 46.709 0.003 70.063" fill="#005475"/>
<path d="M524.721 457.586v26.856-16.8-10.056z" fill="#005475"/>
<path d="M524.721 457.586v26.856-16.8-10.056" fill="#005475"/>
<path d="M499.319 423.447c0 23.66-0.045 47.319-0.045 70.981v-16.8c0-23.662 0.045-47.321 0.045-70.982v16.801z" fill="#005475"/>
<path d="M499.319 406.646v16.8c0 23.66-0.045 47.319-0.045 70.981v-16.8c0-23.661 0.045-47.32 0.045-70.981" fill="#005475"/>
<path d="M511.955 323.565c-116.231 0.443-208.103 80.15-208.364 180.071v-16.8c0.261-99.921 92.131-179.629 208.364-180.072v16.801z" fill="#005475"/>
<path d="M720.772 487.281v16.8c-1.653-100.317-92.706-180.394-208.516-180.515a249.57 249.57 0 0 0-33.106 2.276v-16.8a249.402 249.402 0 0 1 33.106-2.276c115.81 0.121 206.863 80.195 208.516 180.515M479.15 309.042v16.8c-17.277 2.358-33.806 6.504-49.333 12.209v-16.8c15.527-5.706 32.057-9.851 49.333-12.209M429.817 321.25v16.8c-15.065 5.537-29.187 12.542-42.132 20.817v-16.8c12.945-8.274 27.068-15.28 42.132-20.817M387.685 342.066v16.8c-16.762 10.712-31.554 23.548-43.871 38.063v-16.8c12.317-14.515 27.109-27.35 43.871-38.063M343.814 380.131v16.8c-23.215 27.359-37.64 60.686-39.907 97.024v-16.8c2.266-36.338 16.692-69.666 39.907-97.024M303.906 477.155v16.8a160.996 160.996 0 0 0-0.314 9.681v-16.8c0.008-3.25 0.113-6.476 0.314-9.681" fill="#005475"/>
<path d="M512.257 323.564l-0.302 0.001v-1.966-2.082-2.159-2.198-2.198-2.159-2.078-1.96l0.302-0.001c115.81 0.122 206.862 80.197 208.516 180.516v16.8c-1.654-100.318-92.707-180.393-208.516-180.516z" fill="#005475"/>
<path d="M720.772 487.281v16.8c-1.653-100.317-92.706-180.394-208.516-180.515a249.57 249.57 0 0 0-33.106 2.276v-16.8a249.402 249.402 0 0 1 33.106-2.276c115.81 0.121 206.863 80.195 208.516 180.515" fill="#005475"/>
<path d="M524.721 467.642v16.8c0 8.567-0.002 17.132-0.003 25.696v-16.8c0.001-8.565 0.003-17.13 0.003-25.696z" fill="#005475"/>
<path d="M524.721 467.642v16.8c0 8.567-0.002 17.132-0.003 25.696v-16.8c0.001-8.565 0.003-17.13 0.003-25.696" fill="#005475"/>
<path d="M499.274 482.592v16.8H390.55c-8.75 0.011-13.819 4.069-13.86 11.08v-16.8c0.041-7.01 5.11-11.069 13.86-11.079h103.018l5.706-0.001z" fill="#005475"/>
<path d="M499.274 482.592v16.8H390.55a24.251 24.251 0 0 0-3.252 0.212v-16.8a24.24 24.24 0 0 1 3.252-0.212h108.724" fill="#005475"/>
<path d="M387.299 482.804v16.8c-1.322 0.179-2.535 0.472-3.627 0.874v-16.8a17.263 17.263 0 0 1 3.627-0.874" fill="#005475"/>
<path d="M383.672 483.678v16.8c-0.883 0.324-1.688 0.719-2.412 1.183v-16.8c0.724-0.463 1.53-0.859 2.412-1.183M381.26 484.861v16.8a9.87 9.87 0 0 0-2.239 1.94v-16.8a9.895 9.895 0 0 1 2.239-1.94" fill="#005475"/>
<path d="M379.022 486.801v16.8c-1.367 1.616-2.158 3.667-2.304 6.102v-16.8c0.146-2.437 0.937-4.486 2.304-6.102M376.717 492.902v16.8c-0.015 0.251-0.024 0.507-0.026 0.77v-16.8c0.001-0.261 0.011-0.518 0.026-0.77" fill="#005475"/>
<path d="M511.494 323.743c1.197 0.019 1.474 0.035 1.751 0.06 6.633 0.593 11.432 4.338 11.452 10.118 0.027 9.441 0.03 18.88 0.028 28.318-0.001 9.438-0.008 18.875-0.008 28.312 0 25.698 0.005 51.395 0.003 77.093 0 8.567-0.002 17.131-0.003 25.696 0 7.971-4.416 11.759-13.68 11.759H390.562c-8.961 0-13.91-4.093-13.87-11.427 0.041-7.01 5.11-11.07 13.86-11.079h108.723v-4.967c0-23.662 0.045-47.321 0.045-70.98 0-23.658-0.045-47.318-0.227-70.98 0.115-6.893 5.428-11.769 12.401-11.923z" fill="#ffffff"/>
<path d="M524.718 493.338v16.8c0 7.971-4.416 11.759-13.68 11.759H390.563c-8.961 0-13.91-4.093-13.87-11.425v-16.8c-0.04 7.333 4.909 11.427 13.87 11.427H511.04c9.262-0.001 13.678-3.79 13.678-11.761z" fill="#005475"/>
<path d="M524.718 493.338v16.8c0 0.409-0.013 0.804-0.033 1.191v-16.8c0.02-0.386 0.033-0.781 0.033-1.191M524.684 494.528v16.8c-0.167 2.794-0.945 5.018-2.352 6.689v-16.8c1.406-1.672 2.184-3.894 2.352-6.689M522.332 501.219v16.799a8.922 8.922 0 0 1-2.022 1.763v-16.8a8.942 8.942 0 0 0 2.022-1.762M520.31 502.979v16.8a11.03 11.03 0 0 1-2.164 1.063v-16.8a11.085 11.085 0 0 0 2.164-1.063M518.146 504.041v16.8c-1.033 0.379-2.193 0.656-3.479 0.831v-16.8c1.284-0.175 2.443-0.453 3.479-0.831M514.666 504.872v16.8a27.42 27.42 0 0 1-3.628 0.226H390.563c-8.961 0-13.91-4.093-13.87-11.425v-16.8c-0.04 7.333 4.909 11.427 13.87 11.427h120.475a27.575 27.575 0 0 0 3.628-0.228" fill="#005475"/>
<path d="M720.772 487.281v16.8c-1.679 100.237-92.645 180.248-208.322 180.457-116.667-0.12-209.131-80.415-208.86-180.901v-16.8c-0.271 100.484 92.192 180.779 208.86 180.899 115.678-0.209 206.644-80.22 208.322-180.455z" fill="#005475"/>
<path d="M720.772 487.281v16.8a171.123 171.123 0 0 1-0.303 7.643v-16.8c0.161-2.534 0.26-5.083 0.303-7.643" fill="#005475"/>
<path d="M720.47 494.923v16.8c-2.335 37.346-17.099 71.605-40.845 99.601v-16.8c23.746-27.996 38.51-62.256 40.845-99.601M679.625 594.522v16.8c-12.418 14.643-27.293 27.568-44.133 38.328v-16.8c16.84-10.758 31.715-23.685 44.133-38.328M635.492 632.851v16.8c-12.842 8.203-26.828 15.149-41.737 20.628v-16.8c14.909-5.479 28.895-12.425 41.737-20.628M593.755 653.479v16.8c-15.293 5.622-31.56 9.702-48.559 12.023v-16.8c16.999-2.323 33.267-6.403 48.559-12.023" fill="#005475"/>
<path d="M545.198 665.5v16.8a245.063 245.063 0 0 1-32.748 2.237c-116.667-0.12-209.131-80.415-208.86-180.901v-16.8c-0.271 100.484 92.192 180.779 208.86 180.899a244.91 244.91 0 0 0 32.748-2.235" fill="#005475"/>
<path d="M738.815 459.548c0.966 6.381 1.724 12.781 2.579 19.172v17.064c-1.167 8.17-1.996 16.387-3.546 24.503-7.51 39.423-27.296 73.73-58.897 102.712-36.973 33.914-82.264 54.264-135.748 60.819a264.664 264.664 0 0 1-32.22 1.992c-19.135 0-38.102-2.145-56.856-6.523-58.707-13.706-104.389-43.054-136.855-87.566-17.154-23.508-27.891-49.155-32.093-76.776-0.969-6.374-1.726-12.771-2.573-19.162v-17.064l0.818-4.55c2.229-12.328 3.227-24.942 6.914-36.935 15.726-51.173 49.935-90.883 101.727-119.02 26.944-14.629 56.317-23.797 87.918-27.392 7.368-0.839 14.767-1.492 22.155-2.236h19.714l5.273 0.708c14.242 1.938 28.8 2.811 42.649 6.006 58.938 13.574 104.699 43.097 137.188 87.775 17.026 23.424 27.69 48.975 31.853 76.473z m-227.082 208.19c116.405-0.202 207.358-80.217 209.039-180.458-1.653-100.318-92.706-180.394-208.516-180.516-116.375 0.308-208.404 80.066-208.666 180.074-0.271 100.485 92.194 180.778 208.143 180.9" fill="#ffffff"/>
<path d="M511.315 306.765c116.752 0.121 207.806 80.196 209.458 180.514-1.679 100.236-92.645 180.247-208.322 180.456-116.667-0.12-209.131-80.415-208.86-180.899 0.262-100.001 92.301-179.755 207.724-180.071z m13.406 160.877c0.002-25.697-0.003-51.395-0.003-77.093 0-9.436 0.007-18.872 0.008-28.312 0.002-9.437-0.003-18.875-0.028-28.318-0.021-5.779-4.818-9.523-11.453-10.118a17.815 17.815 0 0 0-0.827-0.052c-7.896 0.146-13.208 5.02-13.32 11.596 0.179 23.98 0.224 47.641 0.224 71.299 0 23.661-0.045 47.32-0.045 70.982v4.965H390.554c-8.75 0.01-13.819 4.069-13.86 11.079-0.04 7.333 4.909 11.427 13.87 11.427h120.475c9.265 0 13.681-3.787 13.681-11.759-0.002-8.565 0.001-17.13 0.001-25.696" fill="#ffffff"/>
<path d="M741.395 495.783v16.8c-1.167 8.172-1.996 16.387-3.546 24.506-7.51 39.423-27.296 73.729-58.897 102.711-36.973 33.914-82.264 54.264-135.748 60.819a264.664 264.664 0 0 1-32.22 1.992c-19.135 0-38.102-2.144-56.856-6.523-58.707-13.706-104.389-43.054-136.855-87.566-17.154-23.508-27.891-49.154-32.093-76.776-0.969-6.373-1.726-12.771-2.573-19.163v-16.8c0.848 6.392 1.604 12.789 2.573 19.163 4.203 27.62 14.938 53.269 32.093 76.775 32.467 44.513 78.151 73.861 136.855 87.567 18.754 4.379 37.721 6.522 56.856 6.522 10.69 0 21.436-0.67 32.22-1.992 53.484-6.557 98.775-26.906 135.748-60.819 31.602-28.981 51.388-63.288 58.897-102.711 1.549-8.118 2.379-16.333 3.546-24.505z" fill="#005475"/>
<path d="M741.395 495.783v16.8c-1.167 8.172-1.996 16.387-3.546 24.506-5.901 30.975-19.382 58.79-40.215 83.349v-16.8c20.833-24.559 34.313-52.374 40.215-83.35 1.549-8.118 2.379-16.333 3.546-24.505" fill="#005475"/>
<path d="M697.634 603.638v16.8c-5.684 6.696-11.911 13.154-18.684 19.362-10.063 9.229-20.74 17.455-32.033 24.671v-16.8c11.291-7.216 21.971-15.441 32.033-24.671 6.773-6.21 13-12.666 18.684-19.362M646.917 647.671v16.8c-13.995 8.942-28.932 16.337-44.807 22.169v-16.8c15.875-5.833 30.812-13.227 44.807-22.169M602.11 669.84v16.8c-17.201 6.32-35.504 10.812-54.902 13.46v-16.8c19.398-2.649 37.701-7.14 54.902-13.46" fill="#005475"/>
<path d="M547.208 683.3v16.8c-1.33 0.182-2.665 0.354-4.006 0.52a264.671 264.671 0 0 1-32.222 1.992c-19.132 0-38.101-2.144-56.854-6.523-58.707-13.706-104.389-43.054-136.855-87.566-17.154-23.508-27.891-49.154-32.093-76.776-0.969-6.373-1.726-12.771-2.572-19.163v-16.8c0.846 6.392 1.603 12.789 2.572 19.163 4.203 27.62 14.938 53.269 32.093 76.775 32.467 44.513 78.15 73.861 136.855 87.567 18.754 4.379 37.722 6.522 56.854 6.522 10.692 0 21.438-0.67 32.222-1.992 1.341-0.166 2.676-0.338 4.006-0.519" fill="#005475"/>
</g>
</svg>